<svg width="207" height="230" viewBox="0 0 207 230" fill="none" xmlns="http://www.w3.org/2000/svg">
<path d="M69.21 103.61H46.39V126.43H69.21V103.61ZM114.84 103.61H92.02V126.43H114.84V103.61ZM160.49 103.61H137.68V126.43H160.5L160.49 103.61ZM183.31 23.7401H171.9V0.920044H149.08V23.7401H57.79V0.920044H34.97V23.7401H23.56C11.01 23.7501 0.839976 33.9301 0.849976 46.4801C0.849976 46.5101 0.849976 46.5401 0.849976 46.5701L0.72998 206.31C0.72998 218.91 10.95 229.13 23.55 229.13H23.56H183.3C195.89 229.09 206.08 218.9 206.12 206.31V46.5701C206.1 33.9801 195.9 23.7801 183.31 23.7401ZM183.31 206.31H23.57V80.8H183.31V206.31Z" fill="black"/>
</svg>
