<svg width="26" height="26" viewBox="0 0 26 26" fill="none" xmlns="http://www.w3.org/2000/svg">
<g clip-path="url(#clip0_309_830)">
<path d="M23.767 4.33398H4.56699C3.23499 4.33398 2.17899 5.40198 2.17899 6.73398L2.16699 21.134C2.16699 22.466 3.23499 23.534 4.56699 23.534H23.767C25.099 23.534 26.167 22.466 26.167 21.134V6.73398C26.167 5.40198 25.099 4.33398 23.767 4.33398ZM9.96699 17.534H8.52699L5.46699 13.334V17.534H3.96699V10.334H5.46699L8.46699 14.534V10.334H9.96699V17.534ZM15.967 11.846H12.967V13.19H15.967V14.702H12.967V16.034H15.967V17.534H11.167V10.334H15.967V11.846ZM24.367 16.334C24.367 16.994 23.827 17.534 23.167 17.534H18.367C17.707 17.534 17.167 16.994 17.167 16.334V10.334H18.667V15.746H20.023V11.522H21.523V15.734H22.867V10.334H24.367V16.334Z" fill="white"/>
</g>
<defs>
<clipPath id="clip0_309_830">
<rect width="26" height="26" fill="white"/>
</clipPath>
</defs>
</svg>
