<svg width="26" height="26" viewBox="0 0 26 26" fill="none" xmlns="http://www.w3.org/2000/svg">
<path d="M21.6667 4.33325H4.33341C3.13091 4.33325 2.17758 5.29742 2.17758 6.49992L2.16675 19.4999C2.16675 20.7024 3.13091 21.6666 4.33341 21.6666H21.6667C22.8692 21.6666 23.8334 20.7024 23.8334 19.4999V6.49992C23.8334 5.29742 22.8692 4.33325 21.6667 4.33325ZM9.20841 16.2499H7.90841L5.14591 12.4583V16.2499H3.79175V9.74992H5.14591L7.85425 13.5416V9.74992H9.20841V16.2499ZM14.6251 11.1149H11.9167V12.3283H14.6251V13.6933H11.9167V14.8958H14.6251V16.2499H10.2917V9.74992H14.6251V11.1149ZM22.2084 15.1666C22.2084 15.7624 21.7209 16.2499 21.1251 16.2499H16.7917C16.1959 16.2499 15.7084 15.7624 15.7084 15.1666V9.74992H17.0626V14.6358H18.2867V10.8224H19.6409V14.6249H20.8542V9.74992H22.2084V15.1666Z" fill="black"/>
</svg>
