<svg xmlns="http://www.w3.org/2000/svg" viewBox="0 0 294.19 71.84"><defs><style>.cls-1{fill:#10293f;}.cls-2{fill:#015c53;}.cls-3{fill:#f4e100;}</style></defs><g id="Calque_2" data-name="Calque 2"><g id="Calque_1-2" data-name="Calque 1"><path class="cls-1" d="M46.81,29.85a25.8,25.8,0,0,1,4.63,9.67h0a26.65,26.65,0,0,1,.7,4.77c-.64.22-1.29.41-1.94.57a19.72,19.72,0,0,1-4.84.51,19.24,19.24,0,0,0-3.44-10.65Z"/><path class="cls-2" d="M26.46,26.46A19.26,19.26,0,0,0,29.9,37.11L25,42a26,26,0,0,1-5.34-14.44A19.37,19.37,0,0,1,26.46,26.46Z"/><path class="cls-2" d="M64.2,7.64a26.1,26.1,0,0,1-12.66,43.9,26.39,26.39,0,0,1-7.25.61,26,26,0,0,1-14.44-5.34l4.87-4.88a19.24,19.24,0,0,0,10.65,3.44,19.72,19.72,0,0,0,4.84-.51c.65-.16,1.3-.35,1.94-.57a19,19,0,0,0,6-3.41h0a16.85,16.85,0,0,0,1.25-1.15,19.31,19.31,0,0,0,4-21.45,19.09,19.09,0,0,0-1.8-3.2q-.45-.64-1-1.26h0a17.68,17.68,0,0,0-1.24-1.36c-.44-.44-.89-.85-1.36-1.24h0q-.62-.51-1.26-1a18.79,18.79,0,0,0-3.21-1.8,19.31,19.31,0,0,0-21.45,4c-.41.41-.79.83-1.15,1.26a19.36,19.36,0,0,0-3.41,6,24.2,24.2,0,0,0-3.07,0,26.67,26.67,0,0,0-4.17.59,25.86,25.86,0,0,1,7-12.66A26.13,26.13,0,0,1,64.2,7.64Z"/><path class="cls-3" d="M59.38,12.46a17.68,17.68,0,0,1,1.24,1.36h0q.51.62,1,1.26a19.09,19.09,0,0,1,1.8,3.2l-5.25,22.6h0a19,19,0,0,1-6,3.41,26.65,26.65,0,0,0-.7-4.77h0l4.33-18.64-29,29L37.87,61a19.21,19.21,0,0,1-6.39,3.24l-9.54-9.54-6.86,6.86a19.34,19.34,0,0,1-2.62-2.2,18.63,18.63,0,0,1-2.2-2.62l6.86-6.86L7.57,40.35A19.15,19.15,0,0,1,10.82,34L21.94,45.08l29-29L32.31,20.39h0a26.52,26.52,0,0,0-4.77-.7,19.36,19.36,0,0,1,3.41-6l22.6-5.25a18.79,18.79,0,0,1,3.21,1.8q.65.45,1.26,1h0C58.49,11.61,58.94,12,59.38,12.46Z"/><path class="cls-1" d="M42,25,37.11,29.9a19.33,19.33,0,0,0-17.42-2.35A19.29,19.29,0,0,0,7.57,40.35a19.37,19.37,0,0,0,2.69,16.41,18.63,18.63,0,0,0,2.2,2.62A19.3,19.3,0,0,0,37.87,61a19.44,19.44,0,0,0,6.42-8.87,26.39,26.39,0,0,0,7.25-.61A26.11,26.11,0,1,1,20.3,20.29a26.67,26.67,0,0,1,4.17-.59,24.2,24.2,0,0,1,3.07,0,26.52,26.52,0,0,1,4.77.7h0A25.8,25.8,0,0,1,42,25Z"/><path class="cls-1" d="M107.08,38.17a14.52,14.52,0,0,0-.74-4.53,8.22,8.22,0,0,0-14.79-1.07q-2.42,4.16-2.41,12.14,0,7.44,2.64,11.46a8.28,8.28,0,0,0,7.29,4A13.2,13.2,0,0,0,104.53,59a22.65,22.65,0,0,0,5.25-3.37,7.87,7.87,0,0,1,2,1.84,6.57,6.57,0,0,1,1.23,2.3,19.68,19.68,0,0,1-4,3A22.32,22.32,0,0,1,103.88,65a21.11,21.11,0,0,1-5.89.81A14,14,0,0,1,90.71,64a13.79,13.79,0,0,1-4.81-4.79,22.07,22.07,0,0,1-2.66-6.78,36.08,36.08,0,0,1-.82-7.75q0-7.47,2.26-12.21a15.81,15.81,0,0,1,6-7,15.57,15.57,0,0,1,8.18-2.25,16.6,16.6,0,0,1,7.68,1.66,13,13,0,0,1,5,4.32,10.13,10.13,0,0,1,1.77,5.72,3.94,3.94,0,0,1-.84,2.62,3.45,3.45,0,0,1-2.79,1,7.45,7.45,0,0,1-1.31-.11C108,38.38,107.56,38.29,107.08,38.17Z"/><path class="cls-1" d="M143.8,50.17a20.92,20.92,0,0,1-1.47,8.11A12.19,12.19,0,0,1,138,63.79a12.36,12.36,0,0,1-7.17,2,12.17,12.17,0,0,1-7.14-2,12.3,12.3,0,0,1-4.34-5.54,20.94,20.94,0,0,1-1.45-8,20.74,20.74,0,0,1,1.47-8.07A13,13,0,0,1,138,36.59a12.08,12.08,0,0,1,4.34,5.51A21.13,21.13,0,0,1,143.8,50.17Zm-19.53,0a23.61,23.61,0,0,0,.57,5.28,8.58,8.58,0,0,0,2,4,5.23,5.23,0,0,0,4,1.55,5.13,5.13,0,0,0,4-1.55,8.73,8.73,0,0,0,2-4,24.74,24.74,0,0,0,0-10.56,8.86,8.86,0,0,0-2-4,5.1,5.1,0,0,0-4-1.56,5.2,5.2,0,0,0-4,1.56,8.7,8.7,0,0,0-2,4A23.61,23.61,0,0,0,124.27,50.17Z"/><path class="cls-1" d="M153.82,35.11a3,3,0,0,1,2.7,1.17,5.79,5.79,0,0,1,.78,3.24V65a11.68,11.68,0,0,1-1.41.18q-.81.06-1.65.06t-1.65-.06a14.08,14.08,0,0,1-1.47-.18V35.53l.39-.42Zm13.56,11.1a8.27,8.27,0,0,0-.9-4.49,3,3,0,0,0-2.67-1.3,6.61,6.61,0,0,0-3.2.94,12.66,12.66,0,0,0-3.13,2.51,12.47,12.47,0,0,0-2.28,3.48v-6a18.33,18.33,0,0,1,3-3.32,14.65,14.65,0,0,1,3.63-2.31,9.69,9.69,0,0,1,3.95-.85,7.28,7.28,0,0,1,4.35,1.24,7.46,7.46,0,0,1,2.59,3.36,12.45,12.45,0,0,1,.86,4.7V65a14.08,14.08,0,0,1-1.47.18q-.81.06-1.62.06t-1.65-.06a14.08,14.08,0,0,1-1.47-.18Zm16.26-.06a8,8,0,0,0-.92-4.46A3.08,3.08,0,0,0,180,40.42a6.47,6.47,0,0,0-3.08.91,13,13,0,0,0-3.16,2.51,14.25,14.25,0,0,0-2.49,3.66V40.6a24.23,24.23,0,0,1,3.24-2.93,15.67,15.67,0,0,1,3.69-2.07,10.68,10.68,0,0,1,3.93-.76,7.09,7.09,0,0,1,4.32,1.26A7.42,7.42,0,0,1,189,39.47a13,13,0,0,1,.83,4.76V58.66a19.79,19.79,0,0,0,.21,3,7.43,7.43,0,0,0,.78,2.45,5.79,5.79,0,0,1-1.73.94,6.23,6.23,0,0,1-2.14.38,3,3,0,0,1-2.58-1,4.83,4.83,0,0,1-.75-2.94Z"/><path class="cls-2" d="M204.73,20a7.83,7.83,0,0,1,.49,1.83,13.7,13.7,0,0,1,.17,2.13,11.12,11.12,0,0,1-2,6.48,11.91,11.91,0,0,1-6,4.32,2.84,2.84,0,0,1-1.25-1.29,3.18,3.18,0,0,1-.34-1.77,9.3,9.3,0,0,0,1.93-1.2,7.19,7.19,0,0,0,1.58-1.73,4.1,4.1,0,0,0,.66-2.17l-1.35-.24a2.8,2.8,0,0,1-1.17-.45,5.64,5.64,0,0,1-.39-1.28,7.76,7.76,0,0,1-.18-1.6,9.66,9.66,0,0,1,.16-1.68,4.43,4.43,0,0,1,.41-1.35,6.6,6.6,0,0,1,1.65-.56,9.14,9.14,0,0,1,2-.25,9.62,9.62,0,0,1,2,.22A4.72,4.72,0,0,1,204.73,20Z"/><path class="cls-3" d="M213.34,24.4l.39-.39h5.85v5.25c0,.84,0,1.52,0,2s0,1.21,0,2V56.71c0,.54,0,1,0,1.48s0,1,0,1.55v5.31H217a3.49,3.49,0,0,1-2.67-1,4.07,4.07,0,0,1-1-2.91ZM237.88,24a8.63,8.63,0,0,1,.18,1.36c0,.43,0,.83,0,1.19a10.56,10.56,0,0,1-.11,1.33,6,6,0,0,1-.4,1.52h-16l-2.18,0-2,0V24Zm-3.24,17.64a9.44,9.44,0,0,1,.22,1.36c0,.51.08.94.08,1.28s0,.78-.08,1.27a11.72,11.72,0,0,1-.22,1.4H223.36l-1.74,0-2.18,0-2,0V41.71l2,0,2.18,0h13Zm4.41,18a7.46,7.46,0,0,1-.89,4.17c-.59.84-1.7,1.26-3.34,1.26h-17.4V59.89l2.85-.18q1.41-.09,3.27-.09Z"/><path class="cls-3" d="M249.28,35.11A3,3,0,0,1,252,36.28a5.88,5.88,0,0,1,.77,3.24V65a11.68,11.68,0,0,1-1.41.18q-.81.06-1.65.06t-1.65-.06a14.08,14.08,0,0,1-1.47-.18V35.5l.39-.39Zm20.94,23.55a18.51,18.51,0,0,0,.22,3,7.67,7.67,0,0,0,.8,2.45,5.73,5.73,0,0,1-1.74.94,6.38,6.38,0,0,1-2.16.38,3,3,0,0,1-2.57-1,4.9,4.9,0,0,1-.73-2.94V46.18a9.3,9.3,0,0,0-.78-4.4,3.12,3.12,0,0,0-3-1.36,8.65,8.65,0,0,0-3.26.72,12.19,12.19,0,0,0-3.31,2,10.92,10.92,0,0,0-2.52,3.11V40.36a17.92,17.92,0,0,1,4.92-3.92,12.54,12.54,0,0,1,6.15-1.6,7.41,7.41,0,0,1,4.56,1.3,7.6,7.6,0,0,1,2.56,3.53,14.3,14.3,0,0,1,.83,5Z"/><path class="cls-3" d="M293.89,35.32a8.59,8.59,0,0,1,.3,2.25,8.39,8.39,0,0,1-.3,2.31l-9.81-.12-8.07.12a10.9,10.9,0,0,1-.24-2.31,11.2,11.2,0,0,1,.24-2.25l8.16.12Zm-13.47-5.19a5.2,5.2,0,0,1,.69-3,3.09,3.09,0,0,1,2.64-.94h2.34l.39.42V57.73a2.93,2.93,0,0,0,.57,1.9,2.34,2.34,0,0,0,1.92.71h4.14a9.63,9.63,0,0,1,.48,3.12c0,.22,0,.45,0,.69a2.69,2.69,0,0,1-.1.66c-1,.12-2.07.22-3.21.31s-2.3.14-3.48.14a6.64,6.64,0,0,1-4.71-1.55,6,6,0,0,1-1.65-4.63Z"/></g></g></svg>