<svg width="25" height="25" viewBox="0 0 25 25" fill="none" xmlns="http://www.w3.org/2000/svg">
<path d="M5.20866 2.08398H19.792C20.0683 2.08398 20.3332 2.19373 20.5286 2.38908C20.7239 2.58443 20.8337 2.84938 20.8337 3.12565V21.8757C20.8337 22.1519 20.7239 22.4169 20.5286 22.6122C20.3332 22.8076 20.0683 22.9173 19.792 22.9173H5.20866C4.93239 22.9173 4.66744 22.8076 4.47209 22.6122C4.27674 22.4169 4.16699 22.1519 4.16699 21.8757V3.12565C4.16699 2.84938 4.27674 2.58443 4.47209 2.38908C4.66744 2.19373 4.93239 2.08398 5.20866 2.08398ZM9.37533 11.459V8.33398L4.16699 12.5007L9.37533 16.6673V13.5423H15.6253V11.459H9.37533Z" fill="white"/>
</svg>
