<svg width="177" height="43" viewBox="0 0 177 43" fill="none" xmlns="http://www.w3.org/2000/svg">
<g clip-path="url(#clip0_196_933)">
<path d="M28.1628 17.8672C29.4885 19.5812 30.4375 21.5531 30.9484 23.6552C31.1752 24.5923 31.3162 25.5479 31.3696 26.5103C30.9845 26.642 30.5935 26.7557 30.2024 26.8515C29.2481 27.0724 28.27 27.175 27.2904 27.1567C27.2507 24.8748 26.5303 22.656 25.2207 20.7821L28.1628 17.8672Z" fill="white"/>
<path d="M15.9194 15.8379C15.9598 18.1197 16.6801 20.3383 17.989 22.2125L15.0409 25.1394C13.1175 22.6471 11.9974 19.6339 11.8281 16.4963C13.1414 16.0354 14.527 15.8124 15.9194 15.8379Z" fill="white"/>
<path d="M38.6257 4.57306C40.6099 6.54769 42.0259 9.01526 42.7263 11.719C43.4267 14.4227 43.3859 17.2638 42.6083 19.9465C41.8306 22.6292 40.3445 25.0556 38.3045 26.9731C36.2645 28.8906 33.7452 30.2292 31.0088 30.8495C29.5787 31.171 28.1108 31.2939 26.6468 31.2146C23.4929 31.0462 20.4642 29.9319 17.959 28.0184L20.889 25.0974C22.7726 26.4003 25.0029 27.1169 27.2966 27.1564C28.2762 27.1747 29.2543 27.0722 30.2086 26.8512C30.5997 26.7554 30.9908 26.6417 31.3758 26.51C32.6943 26.0546 33.9178 25.3628 34.9857 24.4689V24.4689C35.2479 24.2522 35.4989 24.0225 35.7378 23.7806C37.3934 22.1315 38.5091 20.023 38.9386 17.7317C39.3681 15.4405 39.0913 13.0736 38.1444 10.9417C37.8461 10.2701 37.4834 9.62865 37.0614 9.02629C36.8809 8.77091 36.6804 8.51952 36.4598 8.27212C36.2255 7.98807 35.9765 7.71636 35.7137 7.45809C35.449 7.19472 35.1783 6.94932 34.8955 6.71588C34.6468 6.51237 34.3941 6.31286 34.1374 6.11733C33.5306 5.69619 32.8838 5.33533 32.2061 5.03993C30.0631 4.09795 27.684 3.82252 25.3809 4.2498C23.0778 4.67707 20.9583 5.78708 19.3007 7.43414C19.054 7.67955 18.8254 7.93094 18.6088 8.18832C17.7142 9.25352 17.0193 10.4699 16.5571 11.7796C15.9421 11.7407 15.3251 11.7407 14.7101 11.7796C13.8657 11.8314 13.0268 11.9495 12.2012 12.1328C12.8518 9.25973 14.3128 6.63096 16.4127 4.55511C19.3626 1.6305 23.3584 -0.0101973 27.523 -0.00683077C31.6876 -0.00346419 35.6806 1.64369 38.6257 4.57306V4.57306Z" fill="white"/>
<path d="M35.7263 7.45794C35.989 7.71621 36.238 7.98792 36.4723 8.27197V8.27197C36.6769 8.51937 36.8774 8.77076 37.074 9.02615C37.496 9.6285 37.8587 10.2699 38.157 10.9415L34.9983 24.4688C33.9303 25.3627 32.7068 26.0544 31.3884 26.5099C31.335 25.5475 31.194 24.5919 30.9672 23.6548L33.5724 12.4977L16.1245 29.8558L22.7847 36.5117C21.6368 37.3922 20.3326 38.0501 18.9402 38.451L13.2004 32.7408L9.07309 36.8469C8.50958 36.4551 7.98208 36.0144 7.49677 35.53C7.00814 35.0488 6.56506 34.5239 6.17313 33.9618L10.3005 29.8558L4.55469 24.1516C4.96144 22.774 5.62474 21.4847 6.51006 20.3508L13.2004 26.9827L30.6483 9.6247L19.4396 12.2045C18.4977 11.9784 17.5371 11.8382 16.5697 11.7855C17.0318 10.4758 17.7268 9.25936 18.6213 8.19416L32.2186 5.05176C32.8963 5.34715 33.5432 5.70802 34.1499 6.12915C34.4107 6.30872 34.6634 6.50824 34.908 6.7277C35.1908 6.94917 35.4616 7.1826 35.7263 7.45794Z" fill="white"/>
<path d="M25.2691 14.9642L22.327 17.8971C20.8161 16.8552 19.0785 16.1846 17.2566 15.9401C15.4348 15.6955 13.5806 15.8842 11.8462 16.4905C10.1063 17.0992 8.53724 18.1117 7.26911 19.4441C6.00098 20.7765 5.07031 22.3904 4.55422 24.152C4.07401 25.806 3.9701 27.5457 4.25005 29.2447C4.52999 30.9436 5.18677 32.5593 6.17267 33.9742C6.5646 34.5362 7.00767 35.0612 7.4963 35.5424C9.49218 37.5224 12.1438 38.7126 14.9568 38.891C17.7697 39.0695 20.5518 38.2239 22.7843 36.5121C24.5565 35.1471 25.8973 33.3043 26.6469 31.2029C28.1108 31.2821 29.5788 31.1593 31.0089 30.8378C30.3884 33.5637 29.0444 36.0742 27.1171 38.1077C25.1897 40.1412 22.7495 41.6233 20.0506 42.3996C17.3517 43.1758 14.4929 43.2178 11.7722 42.5212C9.05144 41.8245 6.56826 40.4148 4.58139 38.4388C2.59452 36.4628 1.17666 33.9928 0.475553 31.2863C-0.225557 28.5798 -0.184261 25.7358 0.595137 23.0505C1.37453 20.3653 2.86351 17.9372 4.90693 16.0191C6.95034 14.101 9.47341 12.7632 12.2133 12.145C13.0389 11.9617 13.8778 11.8436 14.7221 11.7919C15.3372 11.753 15.9541 11.753 16.5692 11.7919C17.5366 11.8446 18.4972 11.9848 19.4391 12.2108V12.2108C21.5549 12.7122 23.5411 13.6502 25.2691 14.9642V14.9642Z" fill="white"/>
<path d="M64.4247 22.8472C64.4218 21.9257 64.2715 21.0104 63.9795 20.1358C63.6385 19.2719 63.0588 18.5216 62.3074 17.9716C61.556 17.4215 60.6635 17.0941 59.7331 17.0271C58.8026 16.9601 57.872 17.1563 57.0489 17.5931C56.2257 18.0298 55.5435 18.6893 55.0811 19.4953C54.1104 21.1553 53.6271 23.5775 53.6311 26.7618C53.6311 29.7306 54.1605 32.0171 55.2194 33.6212C55.6734 34.3696 56.3182 34.9853 57.0884 35.4058C57.8587 35.8262 58.7271 36.0366 59.6055 36.0154C60.7382 36.0177 61.8582 35.7789 62.8905 35.3151C64.0319 34.7909 65.0948 34.1121 66.0492 33.298C66.5114 33.5929 66.9186 33.9656 67.2525 34.3993C67.5892 34.8044 67.8408 35.2725 67.9925 35.776C67.2703 36.4739 66.4616 37.0773 65.5859 37.5716C64.6174 38.1436 63.5804 38.592 62.4994 38.9064C61.3471 39.2335 60.154 39.3967 58.9557 39.3912C57.4238 39.4332 55.9094 39.0586 54.5757 38.3078C53.386 37.607 52.3912 36.6214 51.6817 35.4408C50.926 34.1856 50.3852 32.8142 50.0813 31.3826C49.749 29.8586 49.5836 28.3033 49.588 26.7438C49.588 23.763 50.0412 21.3269 50.9477 19.4355C51.7059 17.7131 52.9626 16.2544 54.5576 15.2456C56.0412 14.3522 57.745 13.8859 59.4791 13.8989C61.0771 13.8574 62.6617 14.1982 64.0998 14.8925C65.3097 15.4822 66.3459 16.3729 67.1081 17.4782C67.8017 18.4866 68.1729 19.68 68.173 20.9019C68.1994 21.4681 68.02 22.0248 67.6676 22.4702C67.4501 22.6877 67.1866 22.8544 66.8962 22.9579C66.6058 23.0614 66.2959 23.0993 65.989 23.0687C65.7249 23.0699 65.4611 23.0479 65.2008 23.0029C64.9782 22.9729 64.7135 22.9191 64.4247 22.8472Z" fill="white"/>
<path d="M86.5176 30.0292C86.5493 31.6896 86.2487 33.3397 85.6332 34.8835C85.108 36.2128 84.2022 37.3595 83.028 38.1815C81.7479 39.012 80.2416 39.43 78.7142 39.3786C77.192 39.4338 75.6903 39.0153 74.4184 38.1815C73.242 37.3528 72.3344 36.2002 71.8072 34.8655C71.2048 33.3414 70.9084 31.7146 70.9348 30.0771C70.9035 28.4245 71.2042 26.7822 71.8193 25.2468C72.2844 24.2486 72.957 23.3599 73.7927 22.6394C74.6284 21.9188 75.6082 21.3827 76.6675 21.0666C77.7267 20.7504 78.8413 20.6612 79.9377 20.805C81.0341 20.9489 82.0874 21.3223 83.028 21.9009C84.2071 22.7191 85.1158 23.8668 85.6392 25.1989C86.2463 26.7365 86.5447 28.3775 86.5176 30.0292ZM74.7674 30.0292C74.7618 31.0921 74.8769 32.1523 75.1103 33.1896C75.2916 34.0794 75.7068 34.9055 76.3136 35.5838C76.626 35.8989 77.0021 36.1445 77.4169 36.3044C77.8317 36.4643 78.2759 36.5349 78.7202 36.5115C79.1649 36.5388 79.6103 36.4701 80.0257 36.3099C80.4411 36.1498 80.8168 35.902 81.1268 35.5838C81.7301 34.9032 82.1448 34.078 82.3301 33.1896C82.7874 31.1072 82.7874 28.9512 82.3301 26.8688C82.1414 25.9815 81.7271 25.1572 81.1268 24.4746C80.818 24.1543 80.4427 23.9048 80.0271 23.7435C79.6115 23.5823 79.1655 23.5131 78.7202 23.5409C78.2754 23.5171 77.8306 23.5881 77.4155 23.7491C77.0005 23.9102 76.6248 24.1575 76.3136 24.4746C75.7097 25.1548 75.2948 25.9801 75.1103 26.8688C74.8769 27.9061 74.7618 28.9663 74.7674 30.0292V30.0292Z" fill="white"/>
<path d="M92.5454 21.0154C92.8538 20.9835 93.1653 21.0312 93.4498 21.1538C93.7344 21.2765 93.9823 21.47 94.1698 21.7158C94.5139 22.3025 94.6771 22.9768 94.6391 23.6551V38.9062C94.3588 38.9592 94.0755 38.9952 93.7908 39.0139C93.4659 39.0379 93.135 39.0498 92.7981 39.0498C92.4611 39.0498 92.1302 39.0379 91.8053 39.0139C91.5088 38.9935 91.2136 38.9575 90.9209 38.9062V21.2668L91.1555 21.0154H92.5454ZM100.704 27.6594C100.781 26.7307 100.593 25.7991 100.162 24.9719C99.9854 24.7146 99.7443 24.5076 99.4626 24.3712C99.181 24.2348 98.8685 24.1736 98.5559 24.1938C97.8763 24.2145 97.2134 24.4082 96.6306 24.7564C95.9266 25.1544 95.2909 25.6616 94.7474 26.2588C94.1761 26.8718 93.7124 27.5759 93.3756 28.3417V24.7504C93.8935 24.0172 94.4996 23.3498 95.1806 22.7632C95.8362 22.1979 96.5722 21.732 97.3646 21.3806C98.112 21.0467 98.9218 20.8734 99.7411 20.8718C100.671 20.8365 101.587 21.0964 102.358 21.614C103.062 22.1202 103.604 22.8189 103.917 23.6251C104.27 24.5208 104.446 25.4762 104.434 26.4383V38.9062C104.141 38.9575 103.846 38.9935 103.55 39.0139C103.225 39.0379 102.9 39.0498 102.575 39.0498C102.25 39.0498 101.919 39.0379 101.582 39.0139C101.286 38.9935 100.99 38.9575 100.698 38.9062L100.704 27.6594ZM110.487 27.6235C110.566 26.6991 110.374 25.7716 109.933 24.9539C109.748 24.6989 109.501 24.4951 109.214 24.3621C108.928 24.229 108.612 24.1711 108.297 24.1938C107.643 24.2175 107.005 24.4048 106.444 24.7384C105.735 25.1377 105.094 25.6446 104.542 26.2408C103.931 26.8889 103.426 27.6281 103.044 28.4315V24.3015C103.64 23.6597 104.292 23.0727 104.994 22.5477C105.674 22.0368 106.421 21.62 107.214 21.3087C107.966 21.0102 108.768 20.8559 109.578 20.8538C110.504 20.8178 111.416 21.0825 112.177 21.608C112.874 22.1182 113.407 22.819 113.711 23.6251C114.055 24.5354 114.225 25.5018 114.211 26.4742V35.1114C114.207 35.7122 114.249 36.3125 114.337 36.907C114.407 37.4192 114.566 37.9155 114.806 38.3735C114.494 38.6188 114.142 38.8091 113.766 38.9361C113.353 39.0864 112.917 39.1634 112.478 39.1636C112.19 39.1951 111.899 39.1571 111.628 39.053C111.358 38.9488 111.117 38.7814 110.926 38.565C110.589 38.0419 110.431 37.4248 110.475 36.8053L110.487 27.6235Z" fill="white"/>
<path d="M123.176 11.9712C123.318 12.3231 123.417 12.6909 123.471 13.0665C123.538 13.4882 123.572 13.9144 123.573 14.3414C123.588 15.7274 123.167 17.0834 122.37 18.22C121.472 19.4411 120.208 20.3467 118.76 20.8058C118.432 20.6361 118.168 20.3652 118.008 20.0337C117.838 19.7075 117.767 19.3396 117.803 18.9742C118.218 18.7829 118.608 18.5417 118.964 18.256C119.336 17.9648 119.657 17.615 119.915 17.2205C120.167 16.8333 120.305 16.3831 120.312 15.9216L119.5 15.7779C119.248 15.7422 119.007 15.6502 118.796 15.5086C118.687 15.2634 118.608 15.0062 118.561 14.7425C118.492 14.4278 118.455 14.1069 118.453 13.7848C118.455 13.4474 118.488 13.111 118.549 12.7792C118.587 12.4985 118.671 12.2257 118.796 11.9712C119.11 11.8163 119.444 11.7036 119.788 11.636C120.183 11.5421 120.586 11.4919 120.992 11.4863C121.396 11.4883 121.8 11.5324 122.195 11.618C122.541 11.6745 122.874 11.7942 123.176 11.9712V11.9712Z" fill="white"/>
<path d="M128.357 14.6047L128.591 14.3712H132.111V17.5136C132.111 18.0164 132.111 18.4234 132.111 18.7107C132.111 18.998 132.111 19.435 132.111 19.9078V33.9439C132.111 34.2671 132.111 34.5424 132.111 34.8297C132.111 35.117 132.111 35.4283 132.111 35.7575V38.9358H130.559C130.264 38.9542 129.968 38.9103 129.691 38.8072C129.414 38.704 129.163 38.5439 128.952 38.3373C128.53 37.8574 128.314 37.232 128.351 36.5955L128.357 14.6047ZM143.121 14.3652C143.179 14.6333 143.215 14.9055 143.229 15.1793C143.229 15.4366 143.229 15.6761 143.229 15.8915C143.224 16.158 143.202 16.4239 143.163 16.6876C143.124 17.0001 143.043 17.306 142.923 17.5974H133.296H131.985H130.781V14.3652H143.121ZM141.172 24.9237C141.236 25.1915 141.28 25.4635 141.304 25.7377C141.304 26.043 141.352 26.3004 141.352 26.5039C141.352 26.7074 141.352 26.9707 141.304 27.264C141.277 27.5458 141.233 27.8256 141.172 28.102H134.385H133.338H132.027H130.823V24.9656H132.027H133.338H141.16L141.172 24.9237ZM143.825 35.6976C143.895 36.5637 143.708 37.4312 143.29 38.1936C142.935 38.6964 142.267 38.9478 141.28 38.9478H130.811V35.8473L132.526 35.7395C133.092 35.7036 133.747 35.6857 134.493 35.6857L143.825 35.6976Z" fill="white"/>
<path d="M149.98 21.0153C150.29 20.9813 150.604 21.0279 150.891 21.1506C151.178 21.2734 151.428 21.4681 151.616 21.7156C151.955 22.3042 152.116 22.9776 152.08 23.655V38.9061C151.799 38.9591 151.516 38.9951 151.231 39.0138C150.906 39.0378 150.575 39.0497 150.238 39.0497C149.902 39.0497 149.571 39.0378 149.246 39.0138C148.949 38.9934 148.654 38.9574 148.361 38.9061V21.2488L148.596 21.0153H149.98ZM162.578 35.1113C162.573 35.7124 162.618 36.3129 162.711 36.9069C162.787 37.4192 162.95 37.9151 163.192 38.3734C162.879 38.6199 162.524 38.8102 162.145 38.936C161.728 39.0859 161.289 39.1628 160.846 39.1635C160.559 39.194 160.268 39.1556 159.999 39.0514C159.73 38.9473 159.49 38.7804 159.299 38.5649C158.97 38.0392 158.816 37.4232 158.86 36.8052V27.6413C158.921 26.7385 158.76 25.8346 158.391 25.0077C158.196 24.718 157.924 24.4883 157.605 24.3444C157.286 24.2005 156.933 24.1483 156.586 24.1937C155.91 24.2092 155.244 24.3556 154.625 24.6246C153.901 24.9157 153.229 25.3198 152.633 25.8217C152.017 26.344 151.503 26.9751 151.117 27.6832V24.1577C151.957 23.2081 152.959 22.4138 154.077 21.8114C155.207 21.1814 156.482 20.8516 157.777 20.8537C158.753 20.8072 159.717 21.0805 160.521 21.6319C161.231 22.1714 161.766 22.9059 162.061 23.7447C162.405 24.7048 162.574 25.7183 162.56 26.7375L162.578 35.1113Z" fill="white"/>
<path d="M176.819 21.1412C176.939 21.5802 176.999 22.033 176.999 22.4879C177.004 22.9549 176.943 23.4203 176.819 23.8706L170.917 23.7988L166.061 23.8706C165.964 23.4161 165.916 22.9526 165.917 22.4879C165.919 22.0353 165.968 21.5841 166.061 21.1412L170.971 21.213L176.819 21.1412ZM168.715 18.0347C168.668 17.4082 168.812 16.7822 169.13 16.239C169.331 16.0274 169.58 15.8661 169.856 15.7683C170.132 15.6705 170.428 15.639 170.718 15.6764H172.126L172.361 15.9278V34.5547C172.339 34.962 172.46 35.3641 172.704 35.692C172.851 35.8453 173.032 35.9632 173.232 36.0368C173.432 36.1104 173.647 36.1378 173.859 36.117H176.35C176.549 36.7194 176.646 37.3504 176.638 37.9844C176.638 38.1161 176.638 38.2538 176.638 38.3974C176.635 38.5311 176.615 38.6638 176.578 38.7925C175.977 38.8643 175.333 38.9242 174.647 38.978C173.961 39.0319 173.263 39.0618 172.553 39.0618C171.524 39.1282 170.508 38.7958 169.719 38.1341C169.367 37.7681 169.096 37.3319 168.925 36.8542C168.754 36.3766 168.686 35.8683 168.727 35.3628L168.715 18.0347Z" fill="white"/>
</g>
<defs>
<clipPath id="clip0_196_933">
<rect width="177" height="43" fill="white"/>
</clipPath>
</defs>
</svg>
