<svg width="17" height="21" viewBox="0 0 17 21" fill="none" xmlns="http://www.w3.org/2000/svg">
<path d="M1.20768 0.0834961H15.791C16.0673 0.0834961 16.3322 0.193243 16.5276 0.388593C16.7229 0.583944 16.8327 0.848896 16.8327 1.12516V19.8752C16.8327 20.1514 16.7229 20.4164 16.5276 20.6117C16.3322 20.8071 16.0673 20.9168 15.791 20.9168H1.20768C0.931415 20.9168 0.666463 20.8071 0.471113 20.6117C0.275763 20.4164 0.166016 20.1514 0.166016 19.8752V1.12516C0.166016 0.848896 0.275763 0.583944 0.471113 0.388593C0.666463 0.193243 0.931415 0.0834961 1.20768 0.0834961ZM5.37435 9.4585V6.3335L0.166016 10.5002L5.37435 14.6668V11.5418H11.6243V9.4585H5.37435Z" fill="#8692A6"/>
</svg>
