<svg width="235" height="235" viewBox="0 0 235 235" fill="none" xmlns="http://www.w3.org/2000/svg">
<path d="M167.798 147.618H157.248L153.558 144.058C167.098 128.318 174.528 108.238 174.488 87.478C174.488 39.498 135.598 0.608034 87.6181 0.608034C39.6481 0.598034 0.758049 39.488 0.748049 87.458C0.748049 87.468 0.748049 87.478 0.748049 87.478C0.738049 135.448 39.6281 174.338 87.5981 174.348C87.6081 174.348 87.6181 174.348 87.6181 174.348C108.368 174.358 128.428 166.918 144.138 153.368L147.698 157.108V167.678L214.578 234.368L234.488 214.458L167.798 147.618ZM87.6081 147.618C54.4381 147.668 27.5081 120.808 27.4581 87.638C27.4581 87.578 27.4581 87.528 27.4581 87.468C27.4181 54.298 54.2781 27.378 87.4481 27.338C87.4981 27.338 87.5481 27.338 87.5981 27.338C120.758 27.288 147.688 54.138 147.728 87.308C147.728 87.368 147.728 87.418 147.728 87.478C147.778 120.648 120.918 147.578 87.7481 147.628C87.7181 147.618 87.6681 147.618 87.6081 147.618Z" fill="black"/>
</svg>
