<svg width="26" height="25" viewBox="0 0 26 25" fill="none" xmlns="http://www.w3.org/2000/svg">
<path d="M8.66667 25H2.88889C1.3 25 0 23.75 0 22.2222V2.77778C0 1.25 1.3 0 2.88889 0H8.66667C10.2556 0 11.5556 1.25 11.5556 2.77778V22.2222C11.5556 23.75 10.2556 25 8.66667 25ZM17.3333 25H23.1111C24.7 25 26 23.75 26 22.2222V15.2778C26 13.75 24.7 12.5 23.1111 12.5H17.3333C15.7444 12.5 14.4444 13.75 14.4444 15.2778V22.2222C14.4444 23.75 15.7444 25 17.3333 25ZM26 6.94444V2.77778C26 1.25 24.7 0 23.1111 0H17.3333C15.7444 0 14.4444 1.25 14.4444 2.77778V6.94444C14.4444 8.47222 15.7444 9.72222 17.3333 9.72222H23.1111C24.7 9.72222 26 8.47222 26 6.94444Z" fill="white"/>
</svg>
