<svg width="232" height="231" viewBox="0 0 232 231" fill="none" xmlns="http://www.w3.org/2000/svg">
<path d="M116.093 27.92C132.783 27.92 146.323 41.45 146.323 58.15C146.323 74.84 132.793 88.38 116.093 88.38C99.4031 88.38 85.8731 74.84 85.8731 58.15C85.8731 41.45 99.4031 27.93 116.093 27.92ZM116.093 157.47C158.833 157.47 203.943 178.48 203.943 187.7V203.54H28.2331V187.7C28.2331 178.49 73.2931 157.47 116.093 157.47ZM116.093 0.619998C84.3031 0.609998 58.5231 26.38 58.5131 58.18C58.5131 58.19 58.5131 58.2 58.5131 58.2C58.5031 89.99 84.2731 115.77 116.073 115.78C116.083 115.78 116.093 115.78 116.093 115.78C147.883 115.79 173.663 90.03 173.673 58.25C173.673 58.23 173.673 58.22 173.673 58.2C173.683 26.41 147.913 0.629998 116.113 0.619998C116.103 0.619998 116.093 0.619998 116.093 0.619998ZM116.093 130.12C77.6631 130.12 0.933105 149.41 0.933105 187.7V230.88H231.253V187.7C231.253 149.41 154.533 130.12 116.093 130.12Z" fill="black"/>
</svg>
